<?xml version="1.0" encoding="UTF-8"?>
<svg version="1.1" viewBox="0 0 16 16" xmlns="http://www.w3.org/2000/svg">
<g fill-rule="evenodd">
<g transform="translate(-484 -282)">
<g transform="translate(484 243)">
<g transform="translate(0 38)">
<g transform="translate(0 1)">
<circle cx="8" cy="8" r="8"/>
<path d="m6.3 6.7676v-0.48529c0.16667-0.064706 0.36667-0.12941 0.6-0.19412 0.26667-0.064706 0.53333-0.12941 0.8-0.16176 0.26667-0.064706 0.56667-0.097059 0.83333-0.12941 0.26667-0.032353 0.53333-0.064706 0.73333-0.064706l0.26667 0.16176-1.3667 6.3088h1.0667v0.51765c-0.13333 0.097059-0.3 0.16176-0.46667 0.25882-0.16667 0.064706-0.36667 0.16176-0.56667 0.22647-0.2 0.064706-0.4 0.097059-0.6 0.12941-0.2 0.032353-0.4 0.064706-0.56667 0.064706-0.4 0-0.63333-0.064706-0.8-0.22647-0.13333-0.12941-0.23333-0.29118-0.23333-0.45294 0-0.19412 0-0.38824 0.033333-0.58235 0.033333-0.19412 0.066667-0.38824 0.13333-0.61471l1.0333-4.5618-0.9-0.19412zm1.2667-3.3c0-0.32353 0.1-0.58235 0.33333-0.77647 0.23333-0.19412 0.53333-0.29118 0.86667-0.29118 0.36667 0 0.7 0.097059 0.9 0.29118 0.23333 0.19412 0.33333 0.45294 0.33333 0.77647 0 0.32353-0.1 0.55-0.33333 0.74412-0.23333 0.19412-0.53333 0.29118-0.9 0.29118-0.36667 0-0.63333-0.097059-0.86667-0.29118s-0.33333-0.45294-0.33333-0.74412z" fill="#fff" fill-rule="nonzero"/>
</g>
</g>
</g>
</g>
</g>
</svg>
